# AST/ASF file generated using VICON BodyLanguage
# -----------------------------------------------
:version 1.10
:name VICON
:units
  mass 1.0
  length 0.45
  angle deg
:documentation
   .ast/.asf automatically generated from VICON data using
   VICON BodyBuilder and BodyLanguage model FoxedUp or BRILLIANT.MOD
:root
   order TX TY TZ RX RY RZ
   axis XYZ
   position 0 0 0  
   orientation 0 0 0 
:bonedata
  begin
     id 1 
     name lhipjoint
     direction 0.627457 -0.725269 0.283342 
     length 2.53237 
     axis 0 0 0  XYZ
  end
  begin
     id 2 
     name lfemur
     direction 0.34202 -0.939693 0  
     length 7.32496  
     axis 0 0 20  XYZ
    dof rx ry rz
    limits (-160.0 20.0)
           (-70.0 70.0)
           (-60.0 70.0)
  end
  begin
     id 3 
     name ltibia
     direction 0.34202 -0.939693 0   
     length 7.69674   
     axis 0 0 20   XYZ
    dof rx
    limits (-10.0 170.0)
  end
  begin
     id 4 
     name lfoot
     direction 0.127289 -0.349722 0.928166   
     length 1.8612   
     axis -90 7.62852e-016 20   XYZ
    dof rx rz
    limits (-45.0 90.0)
           (-70.0 20.0)
  end
  begin
     id 5 
     name ltoes
     direction 1.53561e-011 -4.21864e-011 1   
     length 0.925608   
     axis -90 7.62852e-016 20   XYZ
    dof rx
    limits (-90.0 20.0)
  end
  begin
     id 6 
     name rhipjoint
     direction -0.609094 -0.738725 0.288599   
     length 2.48624  
     axis 0 0 0  XYZ 
  end
  begin
     id 7 
     name rfemur
     direction -0.34202 -0.939693 0   
     length 7.44259   
     axis 0 0 -20   XYZ
    dof rx ry rz
    limits (-160.0 20.0)
           (-70.0 70.0)
           (-70.0 60.0)
  end
  begin
     id 8 
     name rtibia
     direction -0.34202 -0.939693 0   
     length 7.7781   
     axis 0 0 -20   XYZ
    dof rx
    limits (-10.0 170.0)
 end
 begin
     id 9 
     name rfoot
     direction -0.107015 -0.294021 0.949789   
     length 2.14741  
     axis -90 -7.62852e-016 -20   XYZ
    dof rx rz
    limits (-45.0 90.0)
           (-20.0 70.0)
  end
  begin
     id 10 
     name rtoes
     direction -1.53497e-011 -4.21924e-011 1   
     length 1.0706   
     axis -90 -7.62852e-016 -20   XYZ
    dof rx
    limits (-90.0 20.0)
  end
  begin
     id 11 
     name lowerback
     direction -0.0142066 0.998112 -0.0597545   
     length 1.86627   
     axis 0 0 0   XYZ
    dof rx ry rz
    limits (-20.0 45.0)
           (-30.0 30.0)
           (-30.0 30.0)
  end
  begin
     id 12 
     name upperback
     direction 0.00547294 0.999744 0.0219437   
     length 1.86272   
     axis 0 0 0   XYZ
    dof rx ry rz
    limits (-20.0 45.0)
           (-30.0 30.0)
           (-30.0 30.0)
  end
  begin
     id 13 
     name thorax
     direction 0.0116162 0.998704 0.0495538   
     length 1.8703   
     axis 0 0 0   XYZ
    dof rx ry rz
    limits (-20.0 45.0)
           (-30.0 30.0)
           (-30.0 30.0)
  end
  begin
     id 14 
     name lowerneck
     direction -0.0106574 0.998739 0.0490586   
     length 1.8074   
     axis 0 0 0   XYZ
    dof rx ry rz
    limits (-20.0 45.0)
           (-30.0 30.0)
           (-30.0 30.0)
  end
  begin
     id 15 
     name upperneck
     direction 0.030527 0.976587 -0.212944   
     length 1.80681   
     axis 0 0 0   XYZ
    dof rx ry rz
    limits (-20.0 45.0)
           (-30.0 30.0)
           (-30.0 30.0)
  end
  begin
     id 16
     name head
     direction 0.00869225 0.997035 -0.0764531  
     length 1.8313  
     axis 0 0 0   XYZ
    dof rx ry rz
    limits (-20.0 45.0)
           (-30.0 30.0)
           (-30.0 30.0)
  end
  begin
     id 17 
     name lclavicle
     direction 0.915958 0.399447 0.0382386  
     length 3.78965  
     axis 0 0 0   XYZ
    dof ry rz
    limits (-20.0 10.0)
           (0.0 20.0)
  end
  begin
     id 18 
     name lhumerus
     direction 1 -4.48967e-011 3.19303e-027   
     length 4.78095   
     axis -180 -30 -90   XYZ
    dof rx ry rz
    limits (-60.0 90.0)
           (-90.0 90.0)
           (-90.0 90.0)
  end
  begin
     id 19
     name lradius
     direction 1 -4.48967e-011 -3.77974e-027   
     length 3.58615   
     axis -180 -30 -90   XYZ
    dof rx
    limits (-10.0 170.0)
  end
  begin
     id 20
     name lwrist
     direction 1 -4.48927e-011 1.2807e-027   
     length 1.79307   
     axis 1.91374e-015 90 90   XYZ
    dof ry
    limits (-180.0 0.0)
 end
  begin
     id 21 
     name lhand
     direction 1 -4.49036e-011 2.5614e-027   
     length 0.659812   
     axis -1.63439e-015 90 90   XYZ
    dof rx rz
    limits (-90.0 90.0)
           (-45.0 45.0)
  end
  begin
     id 22 
     name lfingers
     direction 1 -4.49052e-011 5.1228e-027   
     length 0.531957   
     axis -3.26879e-015 90 90   XYZ
    dof rx
    limits (0.0 90.0)
  end
  begin
     id 23
     name lthumb
     direction 0.707107 -6.35012e-011 0.707107   
     length 0.763787   
     axis -90 45 2.85299e-015   XYZ
    dof rx rz
    limits (-45.0 45.0)
           (-45.0 45.0)
  end
  begin
     id 24 
     name rclavicle
     direction -0.895351 0.435135 0.0948887   
     length 3.70497  
     axis 0 0 0   XYZ 
    dof ry rz
    limits (-10.0 20.0)
           (-20.0 0.0)
  end
  begin
     id 25 
     name rhumerus
     direction -1 -4.48971e-011 2.38946e-027  
     length 4.48913   
     axis -180 30 90   XYZ
    dof rx ry rz
    limits (-90.0 60.0)
           (-90.0 90.0)
           (-90.0 90.0)
  end
  begin
     id 26 
     name rradius
     direction -1 -4.4895e-011 4.38668e-027   
     length 3.7051   
     axis -180 30 90   XYZ
    dof rx
    limits (-10.0 170.0)
  end
  begin
     id 27 
     name rwrist
     direction -1 -4.49007e-011 1.2807e-027   
     length 1.85255   
     axis 1.91374e-015 -90 -90   XYZ
    dof ry
    limits (-180.0 0.0)
  end
  begin
     id 28
     name rhand
     direction -1 -4.48851e-011 2.5614e-027   
     length 0.449136   
     axis -1.63439e-015 -90 -90   XYZ
    dof rx rz
    limits (-90.0 90.0)
           (-45.0 45.0)
  end
  begin
     id 29
     name rfingers
     direction -1 -4.49128e-011 5.1228e-027   
     length 0.362105   
     axis -3.26879e-015 -90 -90   XYZ
    dof rx
    limits (0.0 90.0)
  end
  begin
     id 30
     name rthumb
     direction -0.707107 -6.34851e-011 0.707107   
     length 0.519912   
     axis -90 -45 -2.85299e-015   XYZ
    dof rx rz
    limits (-45.0 45.0)
           (-45.0 45.0)
  end
:hierarchy
  begin
    root lhipjoint rhipjoint lowerback
    lhipjoint lfemur
    lfemur ltibia
    ltibia lfoot
    lfoot ltoes
    rhipjoint rfemur
    rfemur rtibia
    rtibia rfoot
    rfoot rtoes
    lowerback upperback
    upperback thorax
    thorax lowerneck lclavicle rclavicle
    lowerneck upperneck
    upperneck head
    lclavicle lhumerus
    lhumerus lradius
    lradius lwrist
    lwrist lhand lthumb
    lhand lfingers
    rclavicle rhumerus
    rhumerus rradius
    rradius rwrist
    rwrist rhand rthumb
    rhand rfingers
  end

#!OML:ASF I:\Actors\actors\Patient Classification 2\Patient 1\Session 1\actor1.ASF
:FULLY-SPECIFIED
:DEGREES
31
root -0.799641 18.6581 6.13365 1.47808 1.02295 -1.21513
lowerback 1.39034 -0.0581186 -0.853842
upperback -1.55542 -0.0948402 0.190774
thorax -2.37221 -0.0306963 0.677401
lowerneck -11.2712 -3.28987 -3.0168
upperneck 21.8236 -4.99837 4.4224
head 8.86394 -2.14597 1.45446
rclavicle -4.78326e-015 -1.05356e-014
rhumerus -44.2666 1.3394 -91.0749
rradius 39.2317
rwrist 22.5929
rhand -5.61244 -31.7824
rfingers 7.12502
rthumb 20.2049 -60.7516
lclavicle -4.78326e-015 -1.05356e-014
lhumerus -40.8427 1.2944 92.032
lradius 38.1969
lwrist -10.4509
lhand -1.99749 -23.4783
lfingers 7.12502
lthumb 23.6758 5.08365
rfemur 9.05626 3.8239 15.9944
rtibia -3.18055e-015
rfoot -22.2523 -13.6871
rtoes -1.07114
lfemur -3.92191 -8.697 -12.4298
ltibia 20.7637
lfoot -21.2575 9.02548
ltoes -56.0817
32
root -0.799534 18.6578 6.13739 1.47652 1.02519 -1.21154
lowerback 1.37519 -0.0587509 -0.840591
upperback -1.56871 -0.0954395 0.182475
thorax -2.37736 -0.0312314 0.661472
lowerneck -11.2546 -3.28704 -3.04767
upperneck 21.8478 -4.99855 4.46101
head 8.87101 -2.1446 1.47301
rclavicle -6.47603e-015 -5.36719e-015
rhumerus -44.2919 1.33129 -91.0817
rradius 39.3011
rwrist 22.5277
rhand -5.75946 -31.8579
rfingers 7.12502
rthumb 20.0636 -60.842
lclavicle -6.47603e-015 -5.36719e-015
lhumerus -40.8369 1.30471 92.009
lradius 38.1887
lwrist -10.4691
lhand -1.92897 -23.4953
lfingers 7.12502
lthumb 23.7415 5.05811
rfemur 9.07386 3.82094 15.9914
rtibia 4.45278e-014
rfoot -22.2944 -13.6572
rtoes -0.886417
lfemur -3.90394 -8.67547 -12.4331
ltibia 20.7573
lfoot -21.2564 9.04264
ltoes -56.133
33
root -0.799526 18.6576 6.13969 1.47585 1.02597 -1.17639
lowerback 1.38299 -0.0671426 -0.876277
upperback -1.58683 -0.107812 0.175668
thorax -2.40013 -0.0366717 0.674953
lowerneck -11.2283 -3.28544 -3.06213
upperneck 21.8662 -4.99451 4.45944
head 8.87257 -2.1443 1.47579
rclavicle -3.01594e-015 -5.1684e-015
rhumerus -44.317 1.34914 -91.0926
rradius 39.3548
rwrist 22.5563
rhand -5.67188 -32.2881
rfingers 7.12502
rthumb 20.1478 -61.2634
lclavicle -3.01594e-015 -5.1684e-015
lhumerus -40.8523 1.30703 92.0054
lradius 38.2077
lwrist -10.5058
lhand -1.95268 -23.5161
lfingers 7.12502
lthumb 23.7188 5.04032
rfemur 9.08793 3.81904 15.9523
rtibia -4.13472e-014
rfoot -22.351 -13.6349
rtoes -0.77915
lfemur -3.89037 -8.64688 -12.4707
ltibia 20.7467
lfoot -21.232 9.01498
ltoes -56.1403
34
root -0.798963 18.6581 6.14111 1.49521 1.03073 -1.12535
lowerback 1.38852 -0.0774433 -0.921019
upperback -1.61984 -0.123155 0.162508
thorax -2.43688 -0.0433544 0.687118
lowerneck -11.1522 -3.28436 -3.06518
upperneck 21.8546 -4.9904 4.44606
head 8.85397 -2.14539 1.47332
rclavicle 1.27843e-014 6.75868e-015
rhumerus -44.3504 1.34934 -91.086
rradius 39.4044
rwrist 22.6114
rhand -5.51696 -32.3847
rfingers 7.12502
rthumb 20.2966 -61.3442
lclavicle 1.27843e-014 6.75868e-015
lhumerus -40.8578 1.33919 91.9849
lradius 38.1824
lwrist -10.5433
lhand -2.02907 -23.5997
lfingers 7.12502
lthumb 23.6455 4.96623
rfemur 9.07661 3.81195 15.8909
rtibia 3.33958e-014
rfoot -22.3279 -13.6542
rtoes -0.871895
lfemur -3.90316 -8.63767 -12.5272
ltibia 20.7361
lfoot -21.2033 9.00106
ltoes -56.174
35
root -0.797544 18.6581 6.14319 1.50308 1.03663 -1.10218
lowerback 1.3751 -0.0801591 -0.915299
upperback -1.64107 -0.127052 0.141391
thorax -2.45113 -0.0454546 0.662386
lowerneck -11.0578 -3.29068 -3.04811
upperneck 21.8265 -5.00569 4.45552
head 8.82721 -2.15207 1.4733
rclavicle 7.64389e-015 6.36111e-015
rhumerus -44.3795 1.30945 -91.0841
rradius 39.4566
rwrist 22.5621
rhand -5.47642 -32.1898
rfingers 7.12502
rthumb 20.3356 -61.1452
lclavicle 7.64389e-015 6.36111e-015
lhumerus -40.8493 1.37441 91.9379
lradius 38.1391
lwrist -10.5477
lhand -2.00792 -23.646
lfingers 7.12502
lthumb 23.6658 4.91725
rfemur 9.07396 3.80526 15.8593
rtibia -1.90833e-014
rfoot -22.2956 -13.671
rtoes -0.996369
lfemur -3.90215 -8.64352 -12.5585
ltibia 20.7295
lfoot -21.2039 9.01806
ltoes -56.2341
36
root -0.796749 18.6573 6.1458 1.49194 1.04152 -1.12548
lowerback 1.34428 -0.0828804 -0.882731
upperback -1.63396 -0.129404 0.147282
thorax -2.42646 -0.0473055 0.650179
lowerneck -11.0006 -3.29025 -3.03536
upperneck 21.7951 -5.0097 4.46549
head 8.8059 -2.15318 1.47488
rclavicle 4.72114e-016 1.39149e-015
rhumerus -44.3538 1.25479 -91.0554
rradius 39.4686
rwrist 22.5377
rhand -5.47684 -32.0792
rfingers 7.12502
rthumb 20.3352 -61.0345
lclavicle 4.72114e-016 1.39149e-015
lhumerus -40.8281 1.42619 91.9155
lradius 38.1098
lwrist -10.5602
lhand -1.97141 -23.6291
lfingers 7.12502
lthumb 23.7008 4.92959
rfemur 9.09134 3.80142 15.8842
rtibia 2.70347e-014
rfoot -22.3184 -13.6596
rtoes -0.95065
lfemur -3.8816 -8.65686 -12.5393
ltibia 20.7303
lfoot -21.2228 9.0152
ltoes -56.2056
37
root -0.796854 18.6571 6.14765 1.50255 1.06383 -1.15163
lowerback 1.30613 -0.0946319 -0.875743
upperback -1.63319 -0.144068 0.169343
thorax -2.4039 -0.0546508 0.669299
lowerneck -10.9594 -3.28101 -3.02347
upperneck 21.7576 -4.99475 4.45046
head 8.78406 -2.1478 1.47002
rclavicle 2.80162e-015 3.97569e-015
rhumerus -44.3023 1.22072 -91.0097
rradius 39.4358
rwrist 22.5874
rhand -5.46602 -32.0543
rfingers 7.12502
rthumb 20.3456 -61.0085
lclavicle 2.80162e-015 3.97569e-015
lhumerus -40.8232 1.47794 91.9192
lradius 38.1006
lwrist -10.6204
lhand -1.99308 -23.668
lfingers 7.12502
lthumb 23.68 4.89341
rfemur 9.08893 3.77844 15.915
rtibia 1.90833e-014
rfoot -22.2978 -13.6833
rtoes -1.07805
lfemur -3.8983 -8.69546 -12.5087
ltibia 20.7414
lfoot -21.2727 9.0325
ltoes -56.1476
38
root -0.796717 18.6575 6.14916 1.53205 1.07057 -1.17309
lowerback 1.26738 -0.0928946 -0.853723
upperback -1.64772 -0.140827 0.173089
thorax -2.39711 -0.0533697 0.66062
lowerneck -10.9304 -3.28066 -3.00092
upperneck 21.7494 -4.9973 4.44302
head 8.77519 -2.14847 1.46386
rclavicle 8.54153e-015 4.57205e-015
rhumerus -44.2736 1.18364 -90.9913
rradius 39.4
rwrist 22.6085
rhand -5.45708 -32.0531
rfingers 7.12502
rthumb 20.3542 -61.0064
lclavicle 8.54153e-015 4.57205e-015
lhumerus -40.8489 1.45182 91.9315
lradius 38.1184
lwrist -10.6343
lhand -2.04571 -23.711
lfingers 7.12502
lthumb 23.6295 4.85693
rfemur 9.05904 3.76992 15.9388
rtibia -3.02153e-014
rfoot -22.2404 -13.7399
rtoes -1.43116
lfemur -3.93454 -8.73059 -12.483
ltibia 20.7529
lfoot -21.3396 9.0755
ltoes -56.1395
39
root -0.796357 18.6572 6.15117 1.53434 1.04829 -1.19018
lowerback 1.24822 -0.080463 -0.820957
upperback -1.65752 -0.123342 0.171698
thorax -2.39677 -0.0452074 0.64022
lowerneck -10.8917 -3.27602 -2.99636
upperneck 21.7542 -4.9934 4.44602
head 8.76943 -2.14651 1.46515
rclavicle -6.27414e-015 -6.36111e-015
rhumerus -44.2762 1.16468 -90.9917
rradius 39.41
rwrist 22.5716
rhand -5.39503 -32.0093
rfingers 7.12502
rthumb 20.4138 -60.9562
lclavicle -6.27414e-015 -6.36111e-015
lhumerus -40.8839 1.40281 91.9566
lradius 38.1352
lwrist -10.5658
lhand -2.09173 -23.6973
lfingers 7.12502
lthumb 23.5854 4.87634
rfemur 9.05383 3.79234 15.9567
rtibia 6.36111e-015
rfoot -22.2487 -13.7512
rtoes -1.52541
lfemur -3.92548 -8.72827 -12.4696
ltibia 20.7549
lfoot -21.3407 9.0593
ltoes -56.1068
40
root -0.795643 18.6568 6.1526 1.53303 1.0403 -1.16571
lowerback 1.23679 -0.0767192 -0.839824
upperback -1.66491 -0.118791 0.16862
thorax -2.398 -0.0425952 0.647475
lowerneck -10.8459 -3.27284 -2.97159
upperneck 21.7534 -4.98021 4.38298
head 8.75774 -2.14545 1.44183
rclavicle -6.08467e-015 5.96354e-016
rhumerus -44.2843 1.15818 -90.9859
rradius 39.4345
rwrist 22.5517
rhand -5.40252 -31.7801
rfingers 7.12502
rthumb 20.4066 -60.7278
lclavicle -6.08467e-015 5.96354e-016
lhumerus -40.9098 1.38723 91.9815
lradius 38.1393
lwrist -10.4973
lhand -2.08791 -23.6648
lfingers 7.12502
lthumb 23.5891 4.90834
rfemur 9.06043 3.79994 15.9258
rtibia 1.27222e-014
rfoot -22.2781 -13.7427
rtoes -1.56866
lfemur -3.91282 -8.70938 -12.5008
ltibia 20.7504
lfoot -21.2878 9.00909
ltoes -56.0512
41
root -0.794694 18.6567 6.15378 1.53622 1.04609 -1.1204
lowerback 1.22554 -0.0698082 -0.875402
upperback -1.671 -0.11078 0.148175
thorax -2.39805 -0.0381312 0.646168
lowerneck -10.7979 -3.28037 -2.91642
upperneck 21.7519 -4.98551 4.30876
head 8.7451 -2.15177 1.40763
rclavicle -7.77124e-015 -7.7526e-015
rhumerus -44.2798 1.09615 -90.9899
rradius 39.4118
rwrist 22.589
rhand -5.66598 -31.4389
rfingers 7.12502
rthumb 20.1534 -60.4136
lclavicle -7.77124e-015 -7.7526e-015
lhumerus -40.9323 1.3661 91.9897
lradius 38.149
lwrist -10.4954
lhand -2.07259 -23.5921
lfingers 7.12502
lthumb 23.6038 4.97918
rfemur 9.0662 3.79305 15.8709
rtibia -2.38542e-014
rfoot -22.2753 -13.7347
rtoes -1.65956
lfemur -3.90658 -8.70205 -12.5553
ltibia 20.7423
lfoot -21.2767 9.00877
ltoes -56.0789
42
root -0.793954 18.6559 6.15587 1.51173 1.03793 -1.08944
lowerback 1.23616 -0.0643916 -0.898665
upperback -1.66669 -0.104415 0.137974
thorax -2.39971 -0.0346416 0.648549
lowerneck -10.7542 -3.27876 -2.92901
upperneck 21.7488 -4.98304 4.31594
head 8.73634 -2.15161 1.4131
rclavicle -6.60959e-015 -7.55382e-015
rhumerus -44.2814 1.05771 -91.0082
rradius 39.3831
rwrist 22.6253
rhand -5.91708 -31.32
rfingers 7.12502
rthumb 19.9121 -60.3199
lclavicle -6.60959e-015 -7.55382e-015
lhumerus -40.9546 1.38596 91.988
lradius 38.1618
lwrist -10.5171
lhand -2.02149 -23.5298
lfingers 7.12502
lthumb 23.6528 5.03514
rfemur 9.10143 3.80219 15.8335
rtibia -2.22639e-014
rfoot -22.2927 -13.6944
rtoes -1.41523
lfemur -3.86015 -8.71871 -12.6028
ltibia 20.7328
lfoot -21.3007 9.05395
ltoes -56.1412
43
root -0.79367 18.6552 6.15757 1.48764 1.0229 -1.08614
lowerback 1.25824 -0.0654929 -0.911078
upperback -1.6568 -0.105995 0.154837
thorax -2.4019 -0.0350731 0.672884
lowerneck -10.7346 -3.27265 -3.00389
upperneck 21.7323 -4.97262 4.37457
head 8.73012 -2.14732 1.44689
rclavicle 1.32005e-015 3.57812e-015
rhumerus -44.2803 1.08224 -91.0143
rradius 39.3678
rwrist 22.6909
rhand -5.85782 -31.4554
rfingers 7.12502
rthumb 19.969 -60.4493
lclavicle 1.32005e-015 3.57812e-015
lhumerus -40.9541 1.49865 91.9697
lradius 38.14
lwrist -10.5673
lhand -1.91309 -23.5802
lfingers 7.12502
lthumb 23.7567 4.97127
rfemur 9.13377 3.81854 15.8296
rtibia 1.74931e-014
rfoot -22.3187 -13.6569
rtoes -1.09333
lfemur -3.81716 -8.7433 -12.6165
ltibia 20.7247
lfoot -21.304 9.07602
ltoes -56.1192
44
root -0.793727 18.6547 6.15842 1.48303 1.0179 -1.10875
lowerback 1.28033 -0.0547007 -0.88951
upperback -1.65519 -0.0910026 0.167439
thorax -2.41295 -0.0278067 0.673257
lowerneck -10.7121 -3.2792 -3.015
upperneck 21.6982 -4.98336 4.39643
head 8.71563 -2.15175 1.45523
rclavicle 1.08089e-014 3.37934e-015
rhumerus -44.2904 1.08748 -91.0122
rradius 39.3666
rwrist 22.7349
rhand -5.64775 -31.6353
rfingers 7.12502
rthumb 20.1709 -60.6081
lclavicle 1.08089e-014 3.37934e-015
lhumerus -40.9506 1.59439 91.9536
lradius 38.1012
lwrist -10.6329
lhand -1.86451 -23.6211
lfingers 7.12502
lthumb 23.8033 4.9243
rfemur 9.1416 3.82391 15.8573
rtibia -6.36111e-015
rfoot -22.3034 -13.656
rtoes -1.16232
lfemur -3.80525 -8.75112 -12.5906
ltibia 20.7165
lfoot -21.2982 9.03169
ltoes -56.0097
